<?xml version="1.0" encoding="UTF-8" standalone="no"?>
<svg width="227px" height="208px" viewBox="0 0 227 208" version="1.1" xmlns="http://www.w3.org/2000/svg" xmlns:xlink="http://www.w3.org/1999/xlink">
    <!-- Generator: Sketch 41.2 (35397) - http://www.bohemiancoding.com/sketch -->
    <title>White</title>
    <desc>Created with Sketch.</desc>
    <defs></defs>
    <g id="Page-1" stroke="none" stroke-width="1" fill="none" fill-rule="evenodd">
        <g id="White" transform="translate(3.000000, 4.000000)" stroke="#FFFFFF">
            <path d="M11.4023174,57.4296875 L212.53125,57.9570312 C212.53125,57.9570312 220.253856,62.5912414 220.489258,67.7480469 C220.72466,72.9048523 213.449219,78.0664062 213.449219,78.0664062 L13.6181641,78.0664062" id="Path" stroke-width="7"></path>
            <path d="M14.1259766,57.0136719 C14.1259766,57.0136719 1.00075084,61.4220045 0.8984375,66.6992188 C0.846479049,69.379181 2.42563683,73.0132565 5.00683594,75.1513672 C7.58803504,77.2894779 11.0136719,77.8417969 11.0136719,77.8417969 L23.6123047,78.0371094" id="Path-2" stroke-width="7"></path>
            <path d="M17.9580078,56.21875 C17.9580078,56.21875 8.9383783,38.7550504 46.3203125,33.7412109 C83.7022467,28.7273715 131.587552,27.2918107 176.710938,33.7412109 C221.834323,40.1906112 203.584961,56.21875 203.584961,56.21875" id="Path-3" stroke-width="7"></path>
            <path d="M110.811523,30.4091797 L110.90918,16.7353516 C110.90918,16.7353516 114.976412,16.698176 116.524414,15.3129883 C118.072416,13.9278005 119.850586,8.734375 119.850586,8.734375 C119.850586,8.734375 118.791538,4.61048739 117.361328,3.20556641 C115.931118,1.80064542 111.179688,0.216796875 111.179688,0.216796875 C111.179688,0.216796875 106.424417,0.945103492 104.811523,2.57421875 C103.19863,4.20333401 101.890625,10.4433594 101.890625,10.4433594 C101.890625,10.4433594 103.657511,13.8223967 104.811523,15.3129883 C105.965536,16.8035799 109.412109,16.2597656 109.412109,16.2597656" id="Path-4" stroke-width="7"></path>
            <path d="M19.9589844,78.8984375 L30.8417969,188.444336 C30.8417969,188.444336 32.9391046,194.842918 34.7202148,196.615723 C36.5013251,198.388528 42.7792969,200.326172 42.7792969,200.326172 L178.520508,199.631836 C178.520508,199.631836 185.732883,197.200759 188.28418,194.700684 C190.835477,192.200608 192.042969,186.380859 192.042969,186.380859 L201.299805,78.3027344" id="Path-5" stroke-width="6"></path>
            <path d="M41.7070312,98.5927734 L49.4619141,158.624023" id="Path-6" stroke-width="6"></path>
            <path d="M50.2324219,170.666992 L50.3613281,180.639648" id="Path-7" stroke-width="6"></path>
        </g>
    </g>
</svg>